/* XPM */
static char *xpm_[] = {
/* columns rows colors chars-per-pixel */
"80 80 6 1 ",
"  c #36404D",
". c #A16A4A",
"X c #66798F",
"o c #FFC49C",
"O c #FFEEA3",
"+ c None",
/* pixels */
"++++++++++++++++++++++++++++++++++++++++++++++++++++++++++++++++++++++++++++++++",
"++++++++++++++++++++++++++++++++++++++++++++++++++++++++++++++++++++++++++++++++",
"++++++++++++++++++++++++++++++++++++++++++++++++++++++++++++++++++++++++++++++++",
"++++++++++++++++++++++++++++++++++++++++++++++++++++++++++++++++++++++++++++++++",
"++++++++++......++++++++++++++++++++++++++++++++++++++++++++++++......++++++++++",
"++++++++++......++++++++++++++++++++++++++++++++++++++++++++++++......++++++++++",
"++++++++++......++++++++++++++++++++++++++++++++++++++++++++++++......++++++++++",
"++++++++++......++++++++++++++++++++++++++++++++++++++++++++++++......++++++++++",
"++++++++++......++++++++++++++++++++++++++++++++++++++++++++++++......++++++++++",
"++++++++++......++++++++++++++++++++++++++++++++++++++++++++++++......++++++++++",
"++++++++++............++++++++++++++++++++++++++++++++++++............++++++++++",
"++++++++++............++++++++++++++++++++++++++++++++++++............++++++++++",
"++++++++++............++++++++++++++++++++++++++++++++++++............++++++++++",
"++++++++++............++++++++++++++++++++++++++++++++++++............++++++++++",
"++++++++++............++++++++++++++++++++++++++++++++++++............++++++++++",
"++++++++++............++++++++++++++++++++++++++++++++++++............++++++++++",
"++++++++++..................++++++++++++++++++++++++..................++++++++++",
"++++++++++..................++++++++++++++++++++++++..................++++++++++",
"++++++++++..................++++++++++++++++++++++++..................++++++++++",
"++++++++++..................++++++++++++++++++++++++..................++++++++++",
"++++++++++..................++++++++++++++++++++++++..................++++++++++",
"++++++++++..................++++++++++++++++++++++++..................++++++++++",
"++++++++++............................................................++++++++++",
"++++++++++............oooooooooooooooooooooooooooooooooooo............++++++++++",
"++++++++++............oooooooooooooooooooooooooooooooooooo............++++++++++",
"++++++++++............oooooooooooooooooooooooooooooooooooo............++++++++++",
"++++++++++............oooooooooooooooooooooooooooooooooooo............++++++++++",
"++++++++++............oooooooooooooooooooooooooooooooooooo............++++++++++",
"++++++++++......oooooooooooooooooooooooooooooooooooooooooooooooo......++++++++++",
"++++++++++......oooooooooooooooooooooooooooooooooooooooooooooooo......++++++++++",
"++++++++++......oooooooooooooooooooooooooooooooooooooooooooooooo......++++++++++",
"++++++++++......oooooooooooooooooooooooooooooooooooooooooooooooo......++++++++++",
"++++++++++......oooooooooooooooooooooooooooooooooooooooooooooooo......++++++++++",
"++++++++++......oooooooooooooooooooooooooooooooooooooooooooooooo......++++++++++",
"++++......ooooooOOOOOOOOOOOOooooooooooooooooooooooooOOOOOOOOOOOOoooooo......++++",
"++++.oooooooooooOOOOOOOOOOOOooooooooooooooooooooooooOOOOOOOOOOOOooooooooooo.++++",
"++++.oooooooooooOOOOOOOOOOOOooooooooooooooooooooooooOOOOOOOOOOOOooooooooooo.++++",
"++++.oooooooooooOOOOOOOOOOOOooooooooooooooooooooooooOOOOOOOOOOOOooooooooooo.++++",
"++++.oooooooooooOOOOOOOOOOOOooooooooooooooooooooooooOOOOOOOOOOOOooooooooooo.++++",
"++++.oooooooooooOOOOOOOOOOOOooooooooooooooooooooooooOOOOOOOOOOOOooooooooooo.++++",
"++++.oooooooooooOOOOOO      OOOOOOooooooooooooOOOOOO      OOOOOOooooooooooo.++++",
"++++.oooooooooooOOOOOO      OOOOOOooooooooooooOOOOOO      OOOOOOooooooooooo.++++",
"++++.oooooooooooOOOOOO      OOOOOOooooooooooooOOOOOO      OOOOOOooooooooooo.++++",
"++++.oooooooooooOOOOOO      OOOOOOooooooooooooOOOOOO      OOOOOOooooooooooo.++++",
"++++.oooooooooooOOOOOO      OOOOOOooooooooooooOOOOOO      OOOOOOooooooooooo.++++",
"++++.oooooooooooOOOOOO      OOOOOOooooooooooooOOOOOO      OOOOOOooooooooooo.++++",
"++++.oooooooooooooooooOOOOOOOOOOOOooooooooooooOOOOOOOOOOOOooooooooooooooooo.++++",
"++++.oooooooooooooooooOOOOOOOOOOOOooooooooooooOOOOOOOOOOOOooooooooooooooooo.++++",
"++++.oooooooooooooooooOOOOOOOOOOOOooooooooooooOOOOOOOOOOOOooooooooooooooooo.++++",
"++++.oooooooooooooooooOOOOOOOOOOOOooooooooooooOOOOOOOOOOOOooooooooooooooooo.++++",
"++++.oooooooooooooooooOOOOOOOOOOOOooooooooooooOOOOOOOOOOOOooooooooooooooooo.++++",
"++++.oooooooooooooooooOOOOOOOOOOOOooooooooooooOOOOOOOOOOOOooooooooooooooooo.++++",
"XXXXXXXXXXXXXXXXXXXXXXoooooooooooo............ooooooooooooXXXXXXXXXXXXXXXXXXXXXX",
"XXXXXXXXXXXXXXXXXXXXXXoooooooooooo............ooooooooooooXXXXXXXXXXXXXXXXXXXXXX",
"XXXXXXXXXXXXXXXXXXXXXXoooooooooooo............ooooooooooooXXXXXXXXXXXXXXXXXXXXXX",
"XXXXXXXXXXXXXXXXXXXXXXoooooooooooo............ooooooooooooXXXXXXXXXXXXXXXXXXXXXX",
"XXXXXXXXXXXXXXXXXXXXXXoooooooooooo............ooooooooooooXXXXXXXXXXXXXXXXXXXXXX",
"XXXXXXXXXXXXXXXXXXXXXXoooooooooooo............ooooooooooooXXXXXXXXXXXXXXXXXXXXXX",
"++++++++++.oooooooooooXXXXXXooooooooo......oooooooooXXXXXXoooooooooo.+++++++++++",
"++++++++++.oooooooooooXXXXXXooooooooo......oooooooooXXXXXXoooooooooo.+++++++++++",
"++++++++++.oooooooooooXXXXXXooooooooo......oooooooooXXXXXXoooooooooo.+++++++++++",
"++++++++++.oooooooooooXXXXXXooooooooo......oooooooooXXXXXXoooooooooo.+++++++++++",
"++++++++++.oooooooooooXXXXXXooooooooo......oooooooooXXXXXXoooooooooo.+++++++++++",
"++++++++++.......oooooXXXXXXooooooooo......oooooooooXXXXXXooooo......+++++++++++",
"++++++++++++++++XXXXXXooooooooo......oooooo......oooooooooXXXXXX++++++++++++++++",
"++++++++++++++++XXXXXXooooooooo......oooooo......oooooooooXXXXXX++++++++++++++++",
"++++++++++++++++XXXXXXooooooooo......oooooo......oooooooooXXXXXX++++++++++++++++",
"++++++++++++++++XXXXXXooooooooo......oooooo......oooooooooXXXXXX++++++++++++++++",
"++++++++++++++++XXXXXXooooooooo......oooooo......oooooooooXXXXXX++++++++++++++++",
"++++++++++++++++XXXXXX.oooooooo......oooooo......oooooooo.XXXXXX++++++++++++++++",
"++++++++++XXXXXX++++++.oooooooooooooooooooooooooooooooooo.++++++XXXXXX++++++++++",
"++++++++++XXXXXX++++++.oooooooooooooooooooooooooooooooooo.++++++XXXXXX++++++++++",
"++++++++++XXXXXX++++++.oooooooooooooooooooooooooooooooooo.++++++XXXXXX++++++++++",
"++++++++++XXXXXX++++++.oooooooooooooooooooooooooooooooooo.++++++XXXXXX++++++++++",
"++++++++++XXXXXX++++++.oooooooooooooooooooooooooooooooooo.++++++XXXXXX++++++++++",
"++++++++++XXXXXX++++++....................................++++++XXXXXX++++++++++",
"++++++++++++++++++++++++++++++++++++++++++++++++++++++++++++++++++++++++++++++++",
"++++++++++++++++++++++++++++++++++++++++++++++++++++++++++++++++++++++++++++++++",
"++++++++++++++++++++++++++++++++++++++++++++++++++++++++++++++++++++++++++++++++",
"++++++++++++++++++++++++++++++++++++++++++++++++++++++++++++++++++++++++++++++++"
};
