/* XPM */
static char *xpm_[] = {
/* columns rows colors chars-per-pixel */
"100 100 84 1 ",
"  c #2727AEAE6060",
". c #2828AEAE6161",
"X c #2A2AAFAF6262",
"o c #2B2BB0B06363",
"O c #2F2FB1B16666",
"+ c #2A2ABCBC6868",
"@ c #2B2BBDBD6868",
"# c #2A2ABDBD6969",
"$ c #3030B1B16767",
"% c #3333B2B26969",
"& c #3B3BB6B66F6F",
"* c #3E3EB7B77171",
"= c #4040B7B77272",
"- c #4040B8B87373",
"; c #4343B8B87575",
": c #4545B9B97676",
"> c #4747BABA7878",
", c #4848BABA7878",
"< c #4A4ABBBB7A7A",
"1 c #4F4FBDBD7D7D",
"2 c #5151BEBE7F7F",
"3 c #2E2ECCCC7171",
"4 c #5353BFBF8080",
"5 c #5656BFBF8282",
"6 c #5757C0C08484",
"7 c #5C5CC2C28787",
"8 c #5F5FC3C38989",
"9 c #6161C4C48A8A",
"0 c #6262C4C48C8C",
"q c #6565C5C58E8E",
"w c #6969C7C79191",
"e c #6D6DC8C89494",
"r c #7070C9C99696",
"t c #7373CBCB9898",
"y c #7575CBCB9999",
"u c #7979CDCD9C9C",
"i c #7A7ACDCD9D9D",
"p c #7B7BCDCD9E9E",
"a c #7272DDDD9F9F",
"s c #8282D0D0A3A3",
"d c #8383D1D1A4A4",
"f c #8484D1D1A5A5",
"g c #8888D2D2A7A7",
"h c #8A8AD3D3A9A9",
"j c #8D8DD4D4ABAB",
"k c #9090D5D5ADAD",
"l c #9393D7D7B0B0",
"z c #9898D8D8B3B3",
"x c #9E9EDADAB7B7",
"c c #9F9FDBDBB9B9",
"v c #A0A0DBDBB9B9",
"b c #A1A1DCDCBABA",
"n c #A4A4DDDDBCBC",
"m c #A8A8DEDEBFBF",
"M c #AAAADFDFC1C1",
"N c #ABABE0E0C1C1",
"B c #AFAFE1E1C4C4",
"V c #B4B4E3E3C8C8",
"C c #BABAE5E5CCCC",
"Z c #BDBDE6E6CECE",
"A c #BEBEE7E7CFCF",
"S c #BFBFE7E7D0D0",
"D c #C2C2E8E8D2D2",
"F c #C4C4E9E9D3D3",
"G c #C6C6EAEAD5D5",
"H c #C9C9EBEBD7D7",
"J c #CACAEBEBD8D8",
"K c #CCCCECECDADA",
"L c #D0D0EEEEDDDD",
"P c #D4D4EFEFDFDF",
"I c #D6D6F0F0E1E1",
"U c #D8D8F0F0E2E2",
"Y c #DADAF1F1E4E4",
"T c #DEDEF3F3E7E7",
"R c #E1E1F4F4E9E9",
"E c #E4E4F5F5EBEB",
"W c #E7E7F6F6EEEE",
"Q c #EAEAF7F7EFEF",
"! c #ECECF8F8F1F1",
"~ c #EEEEF9F9F3F3",
"^ c #F1F1FAFAF5F5",
"/ c #F7F7FCFCF9F9",
"( c #FBFBFDFDFCFC",
") c white",
/* pixels */
"3333333333333333333333333333333333333333333333333333333333333333333333333333333333333333333333333333",
"3333333333333333333333333333333333333333333333333333333333333333333333333333333333333333333333333333",
"3333333333333333333333333333333333333333333333333333333333333333333333333333333333333333333333333333",
"3333333333333333333333333333333333333333333333333333333333333333333333333333333333333333333333333333",
"3333333333333333333333333333333333333333333333333333333333333333333333333333333333333333333333333333",
"3333333333333333333333333333333333333333333333333333333333333333333333333333333333333333333333333333",
"3333333333333333333333333333333333333333333333333333333333333333333333333333333333333333333333333333",
"3333333333333333333333333333333333333333333333333333333333333333333333333333333333333333333333333333",
"3333333333333333333333333333333333333333333333333333333333333333333333333333333333333333333333333333",
"3333333333333333333333333333333333333333333333333333333333333333333333333333333333333333333333333333",
"3333333333333333333333333333333333333333333333333333333333333333333333333333333333333333333333333333",
"3333333333333333333333333333333333333333333333333333333333333333333333333333333333333333333333333333",
"3333333333333333333333333333333333333333333333333333333333333333333333333333333333333333333333333333",
"3333333333333333333333333333333333333333333333333333333333333333333333333333333333333333333333333333",
"3333333333333333333333333333333333333333333333333333333333333333333333333333333333333333333333333333",
"3333333333333333333333333333333333333333333333333333333333333333333333333333333333333333333333333333",
"3333333333333333333333333333333333333333333333333333333333333333333333333333333333333333333333333333",
"3333333333333333333333333333333333333333333333333333333333333333333333333333333333333333333333333333",
"3333333333333333333333333333333333333333333333333333333333333333333333333333333333333333333333333333",
"3333333333333333333333333333333333333333333333333333333333333333333333333333333333333333333333333333",
"3333333333333333333333333333333333333333333333333@@3333333333333333333333333333333333333333333333333",
"333333333333333333333333333333333333333333333333@  @333333333333333333333333333333333333333333333333",
"33333333333333333333333333333333333333333333333@    +33333333333333333333333333333333333333333333333",
"3333333333333333333333333333333333333333333333@      +3333333333333333333333333333333333333333333333",
"333333333333333333333333333333333333333333333@        +333333333333333333333333333333333333333333333",
"33333333333333333333333333333333333333333333@          +33333333333333333333333333333333333333333333",
"3333333333333333333333333333333333333333333@            +3333333333333333333333333333333333333333333",
"333333333333333333333333333333333333333333@              +333333333333333333333333333333333333333333",
"33333333333333333333333333333333333333333@                +33333333333333333333333333333333333333333",
"3333333333333333333333333333333333333333@                  +3333333333333333333333333333333333333333",
"333333333333333333333333333333333333333@                    +333333333333333333333333333333333333333",
"33333333333333333333333333333333333333@                      +33333333333333333333333333333333333333",
"3333333333333333333333333333333333333@                        @3333333333333333333333333333333333333",
"333333333333333333333333333333333333@                          @333333333333333333333333333333333333",
"33333333333333333333333333333333333@                            +33333333333333333333333333333333333",
"3333333333333333333333333333333333@                              +3333333333333333333333333333333333",
"333333333333333333333333333333333@                                +333333333333333333333333333333333",
"33333333333333333333333333333333@                                  +33333333333333333333333333333333",
"3333333333333333333333333333333@                                    @3333333333333333333333333333333",
"333333333333333333333333333333@                                      +333333333333333333333333333333",
"33333333333333333333333333333@                                        @33333333333333333333333333333",
"3333333333333333333333333333@                                          @3333333333333333333333333333",
"333333333333333333333333333@                                            #333333333333333333333333333",
"33333333333333333333333333@                                              #33333333333333333333333333",
"3333333333333333333333333@    ..  .       .         .                     @3333333333333333333333333",
"333333333333333333333333@     .o  ..      .o        ..                 X   #333333333333333333333333",
"33333333333333333333333@    rH((YKKKR(R 7C(((z2  iU(Uj0N((Qk-b((QT((RE/(G   @33333333333333333333333",
"3333333333333333333333@      -((O    6R.  N((:.. .AH.  .I(d .MV%..~(* .lK    @3333333333333333333333",
"333333333333333333333@       O((o     N   $U(M   8I$    D(e. B&   !(;. .D     @333333333333333333333",
"33333333333333333333@       .$((.         .<((6.&T:     D(e. w    ~(*   w      @33333333333333333333",
"333333333333333333333       .o((o    g      g(Y%Kr      S(r.      ^(*          @33333333333333333333",
"333333333333333333333@      .O((.  .:F    ..OL(Rb       S(e.     .^(*         @333333333333333333333",
"3333333333333333333333@      .((UIIT(H       1((6.      D(e       !(*        @3333333333333333333333",
"33333333333333333333333@    ..((o  $rH       ;^(Uo      D(e       ~(*       @33333333333333333333333",
"333333333333333333333333+   .$((.    n      OPrT(ko     S(e       ^(*      @333333333333333333333333",
"3333333333333333333333333+  ..((o    $      mc.7((4.    D(e       ^(*     @3333333333333333333333333",
"33333333333333333333333333@ .$((.      u   yLo  M(U.    D(e       ~(;.   #33333333333333333333333333",
"333333333333333333333333333@.O((o     5V..4^:.  *((l    D(e       ^(*   #333333333333333333333333333",
"3333333333333333333333333333@;(($   .q!p.-Qv.    v((8   L(f     .O((2..@3333333333333333333333333333",
"3333333333333333333333333333aK((!IKI!((<yR(Li.  tH((^xqb((!j=   rD((Lf@33333333333333333333333333333",
"333333333333333333333333333333@     .                                #333333333333333333333333333333",
"33333333333333333333333333333333    ..                              #3333333333333333333333333333333",
"33333333333333333333333333333333@                                  #33333333333333333333333333333333",
"333333333333333333333333333333333@                                #333333333333333333333333333333333",
"3333333333333333333333333333333333+                              #3333333333333333333333333333333333",
"33333333333333333333333333333333333@                            #33333333333333333333333333333333333",
"333333333333333333333333333333333333@                          #333333333333333333333333333333333333",
"3333333333333333333333333333333333333@                        #3333333333333333333333333333333333333",
"33333333333333333333333333333333333333@                      #33333333333333333333333333333333333333",
"333333333333333333333333333333333333333@                    #333333333333333333333333333333333333333",
"3333333333333333333333333333333333333333@                  #3333333333333333333333333333333333333333",
"33333333333333333333333333333333333333333@                #33333333333333333333333333333333333333333",
"333333333333333333333333333333333333333333@              #333333333333333333333333333333333333333333",
"33333333333333333333333333333333333333333333            #3333333333333333333333333333333333333333333",
"33333333333333333333333333333333333333333333@.         @33333333333333333333333333333333333333333333",
"333333333333333333333333333333333333333333333@ .      @333333333333333333333333333333333333333333333",
"3333333333333333333333333333333333333333333333@.     @3333333333333333333333333333333333333333333333",
"33333333333333333333333333333333333333333333333@   .@33333333333333333333333333333333333333333333333",
"333333333333333333333333333333333333333333333333@ .@333333333333333333333333333333333333333333333333",
"3333333333333333333333333333333333333333333333333@+3333333333333333333333333333333333333333333333333",
"3333333333333333333333333333333333333333333333333333333333333333333333333333333333333333333333333333",
"3333333333333333333333333333333333333333333333333333333333333333333333333333333333333333333333333333",
"3333333333333333333333333333333333333333333333333333333333333333333333333333333333333333333333333333",
"3333333333333333333333333333333333333333333333333333333333333333333333333333333333333333333333333333",
"3333333333333333333333333333333333333333333333333333333333333333333333333333333333333333333333333333",
"3333333333333333333333333333333333333333333333333333333333333333333333333333333333333333333333333333",
"3333333333333333333333333333333333333333333333333333333333333333333333333333333333333333333333333333",
"3333333333333333333333333333333333333333333333333333333333333333333333333333333333333333333333333333",
"3333333333333333333333333333333333333333333333333333333333333333333333333333333333333333333333333333",
"3333333333333333333333333333333333333333333333333333333333333333333333333333333333333333333333333333",
"3333333333333333333333333333333333333333333333333333333333333333333333333333333333333333333333333333",
"3333333333333333333333333333333333333333333333333333333333333333333333333333333333333333333333333333",
"3333333333333333333333333333333333333333333333333333333333333333333333333333333333333333333333333333",
"3333333333333333333333333333333333333333333333333333333333333333333333333333333333333333333333333333",
"3333333333333333333333333333333333333333333333333333333333333333333333333333333333333333333333333333",
"3333333333333333333333333333333333333333333333333333333333333333333333333333333333333333333333333333",
"3333333333333333333333333333333333333333333333333333333333333333333333333333333333333333333333333333",
"3333333333333333333333333333333333333333333333333333333333333333333333333333333333333333333333333333",
"3333333333333333333333333333333333333333333333333333333333333333333333333333333333333333333333333333",
"3333333333333333333333333333333333333333333333333333333333333333333333333333333333333333333333333333"
};
