/* XPM */
static char *xpm_[] = {
/* columns rows colors chars-per-pixel */
"30 30 28 1 ",
"  c #C74343",
". c #CA4949",
"X c #CC4B4B",
"o c #CD4C4C",
"O c #CD4D4D",
"+ c #CE4E4E",
"@ c #CE4F4F",
"# c #D15252",
"$ c #D15454",
"% c #D25555",
"& c #D35555",
"* c #D45858",
"= c #D55858",
"- c #D65A5A",
"; c #D75A5A",
": c #D75C5C",
"> c #D95F5F",
", c #D96060",
"< c #DF6969",
"1 c #E57272",
"2 c #E87777",
"3 c #EB7C7C",
"4 c #EE8181",
"5 c #F18585",
"6 c #F38888",
"7 c #F38A8A",
"8 c #F78F8F",
"9 c None",
/* pixels */
"999999999999999999999999999999",
"999999999999999999999999999999",
"999999999999999999999999999999",
"999999999999999999999999999999",
"9999       99999999       9999",
"99,; o>,,o ;,9999,; o>>>o ;,99",
"99   ,888,   9999   ,888,   99",
"99 o<28882<o 9999 o<28882<o 99",
"99 &8888888& 9999 &8888888& 99",
"99 &8888888& &&;& &8888888& 99",
"99 &8888888&      &8888888& 99",
"99 &8888888433333348888888& 99",
"99 &8888888888888888888888& 99",
"99 &8888888888888888888888& 99",
"99 &8888888888888888888888& 99",
"99   ,888888888888888888>   99",
"99X. >888888888888888888> .X99",
"9999 >888888888888888888> 9999",
"9999 ;332788888888887333; 9999",
"9999     188888888881     9999",
"9999&;&@ 188888888881 o;;&9999",
"9999999: 188888888881 :9999999",
"9999999: ;<<<7887<<<; :9999999",
"9999999:     5885     :9999999",
"99999999,,,o 5885 o,,,99999999",
"99999999999& 5885 #99999999999",
"99999999999# &&&& #99999999999",
"99999999999#      #99999999999",
"999999999999999999999999999999",
"999999999999999999999999999999"
};
