/* XPM */
static char *xpm_[] = {
/* columns rows colors chars-per-pixel */
"40 40 3 1 ",
"  c #C74343",
". c #F78F8F",
"X c None",
/* pixels */
"XXXXXXXXXXXXXXXXXXXXXXXXXXXXXXXXXXXXXXXX",
"XXXXXXXXXXXXXXXXXXXXXXXXXXXXXXXXXXXXXXXX",
"XXXXXX    XXXXXXXXXXXXXXXXXXXX    XXXXXX",
"XXXXXX .. XXXXXXXXXXXXXXXXXXXX .. XXXXXX",
"XXXX   ..     XXXXXXXXXXXX     ..   XXXX",
"XXXX ........ XXXXXXXXXXXX ........ XXXX",
"XX   ........     XXXX     ........   XX",
"XX .............. XXXX .............. XX",
"XX .............. XXXX .............. XX",
"XX .............. XXXX .............. XX",
"XX .............. XXXX .............. XX",
"XX ..............      .............. XX",
"XX .................................. XX",
"XX .................................. XX",
"XX .................................. XX",
"XX .................................. XX",
"XX .................................. XX",
"XX .................................. XX",
"XX .................................. XX",
"XX .................................. XX",
"XX .................................. XX",
"XX .................................. XX",
"XX .................................. XX",
"XX .................................. XX",
"XX .................................. XX",
"XX     ..........................     XX",
"XXXXXX .......................... XXXXXX",
"XXXXXX .......................... XXXXXX",
"XXXXXX .......................... XXXXXX",
"XXXXXX     ..................     XXXXXX",
"XXXXXXXXXX .................. XXXXXXXXXX",
"XXXXXXXXXX .................. XXXXXXXXXX",
"XXXXXXXXXX .................. XXXXXXXXXX",
"XXXXXXXXXX      ........      XXXXXXXXXX",
"XXXXXXXXXXXXXXX ........ XXXXXXXXXXXXXXX",
"XXXXXXXXXXXXXXX ........ XXXXXXXXXXXXXXX",
"XXXXXXXXXXXXXXX ........ XXXXXXXXXXXXXXX",
"XXXXXXXXXXXXXXX          XXXXXXXXXXXXXXX",
"XXXXXXXXXXXXXXXXXXXXXXXXXXXXXXXXXXXXXXXX",
"XXXXXXXXXXXXXXXXXXXXXXXXXXXXXXXXXXXXXXXX"
};
