/* XPM */
static char *xpm_[] = {
/* columns rows colors chars-per-pixel */
"40 40 6 1 ",
"  c #36404D",
". c #A16A4A",
"X c #66798F",
"o c #FFC49C",
"O c #FFEEA3",
"+ c None",
/* pixels */
"++++++++++++++++++++++++++++++++++++++++",
"++++++++++++++++++++++++++++++++++++++++",
"+++++...++++++++++++++++++++++++...+++++",
"+++++...++++++++++++++++++++++++...+++++",
"+++++...++++++++++++++++++++++++...+++++",
"+++++......++++++++++++++++++......+++++",
"+++++......++++++++++++++++++......+++++",
"+++++......++++++++++++++++++......+++++",
"+++++.........++++++++++++.........+++++",
"+++++.........++++++++++++.........+++++",
"+++++.........++++++++++++.........+++++",
"+++++..............................+++++",
"+++++......oooooooooooooooooo......+++++",
"+++++......oooooooooooooooooo......+++++",
"+++++...oooooooooooooooooooooooo...+++++",
"+++++...oooooooooooooooooooooooo...+++++",
"+++++...oooooooooooooooooooooooo...+++++",
"++...oooOOOOOOooooooooooooOOOOOOooo...++",
"++.oooooOOOOOOooooooooooooOOOOOOooooo.++",
"++.oooooOOOOOOooooooooooooOOOOOOooooo.++",
"++.oooooOOO   OOOooooooOOO   OOOooooo.++",
"++.oooooOOO   OOOooooooOOO   OOOooooo.++",
"++.oooooOOO   OOOooooooOOO   OOOooooo.++",
"++.ooooooooOOOOOOooooooOOOOOOoooooooo.++",
"++.ooooooooOOOOOOooooooOOOOOOoooooooo.++",
"++.ooooooooOOOOOOooooooOOOOOOoooooooo.++",
"XXXXXXXXXXXoooooo......ooooooXXXXXXXXXXX",
"XXXXXXXXXXXoooooo......ooooooXXXXXXXXXXX",
"XXXXXXXXXXXoooooo......ooooooXXXXXXXXXXX",
"+++++.oooooXXXoooo....ooooXXXooooo.+++++",
"+++++.oooooXXXoooo....ooooXXXooooo.+++++",
"+++++....ooXXXoooo....ooooXXXoo....+++++",
"++++++++XXXooooo...oo...oooooXXX++++++++",
"++++++++XXXooooo...oo...oooooXXX++++++++",
"++++++++XXX.oooo...oo...oooo.XXX++++++++",
"+++++XXX+++.oooooooooooooooo.+++XXX+++++",
"+++++XXX+++.oooooooooooooooo.+++XXX+++++",
"+++++XXX+++..................+++XXX+++++",
"++++++++++++++++++++++++++++++++++++++++",
"++++++++++++++++++++++++++++++++++++++++"
};
