/* XPM */
static char *xpm_[] = {
/* columns rows colors chars-per-pixel */
"40 40 3 1 ",
"  c #BA9B48",
". c #FFEEA3",
"X c None",
/* pixels */
"XXXXXXXXXXXXXXXXXXXXXXXXXXXXXXXXXXXXXXXX",
"XXXXXXXXXXXXXXXXXXX   XXXXXXXXXXXXXXXXXX",
"XXXXXXXXXXXXXXXXXXX   XXXXXXXXXXXXXXXXXX",
"XXXXXXXXXXXXXXXXXXX   XXXXXXXXXXXXXXXXXX",
"XXXXXXXXXXXXXXXX   ...   XXXXXXXXXXXXXXX",
"XXXXXXXXXXXXXXXX   ...   XXXXXXXXXXXXXXX",
"XXXXXXXXXXXXXXXX   ...   XXXXXXXXXXXXXXX",
"XXXXXXXXXXXXX   .........   XXXXXXXXXXXX",
"XXXXXXXXXXXXX   .........   XXXXXXXXXXXX",
"XXXXXXXXXXXXX   .........   XXXXXXXXXXXX",
"X               .........               ",
"X               .........               ",
"X               .........               ",
"X   .................................   ",
"X   .................................   ",
"X   .................................   ",
"XXXX   ...........................   XXX",
"XXXX   ...........................   XXX",
"XXXX   ...........................   XXX",
"XXXXXXX   .....................   XXXXXX",
"XXXXXXX   .....................   XXXXXX",
"XXXXXXX   .....................   XXXXXX",
"XXXXXXXXXX   ...............   XXXXXXXXX",
"XXXXXXXXXX   ...............   XXXXXXXXX",
"XXXXXXXXXX   ...............   XXXXXXXXX",
"XXXXXXX   .....................   XXXXXX",
"XXXXXXX   .....................   XXXXXX",
"XXXXXXX   .....................   XXXXXX",
"XXXXXXX   .........   .........   XXXXXX",
"XXXXXXX   .........   .........   XXXXXX",
"XXXXXXX   .........   .........   XXXXXX",
"XXXX   .........   XXX   .........   XXX",
"XXXX   .........   XXX   .........   XXX",
"XXXX   .........   XXX   .........   XXX",
"XXXX   ...      XXXXXXXXX      ...   XXX",
"XXXX   ...      XXXXXXXXX      ...   XXX",
"XXXX   ...      XXXXXXXXX      ...   XXX",
"XXXX      XXXXXXXXXXXXXXXXXXXXX      XXX",
"XXXX      XXXXXXXXXXXXXXXXXXXXX      XXX",
"XXXX      XXXXXXXXXXXXXXXXXXXXX      XXX"
};
