/* XPM */
static char *xpm_[] = {
/* columns rows colors chars-per-pixel */
"48 48 2 1 ",
"  c #FFCA28",
". c None",
/* pixels */
"................................................",
"................................................",
"................................................",
"................................................",
"......................    ......................",
"......................    ......................",
"......................    ......................",
"......................    ......................",
"....................        ....................",
"....................        ....................",
"....................        ....................",
"....................        ....................",
".................              .................",
".................              .................",
".................              .................",
".................              .................",
"..                                            ..",
"..                                            ..",
"..                                            ..",
"......                                    ......",
"......                                    ......",
"......                                    ......",
"..........                            ..........",
"..........                            ..........",
"..........                            ..........",
".............                      .............",
".............                      .............",
".............                      .............",
".............                      .............",
".............                      .............",
"...........                          ...........",
"...........                          ...........",
"...........                          ...........",
"...........                          ...........",
"...........                          ...........",
".........                              .........",
".........           ........           .........",
".........           ........           .........",
".........           ........           .........",
".......        ..................        .......",
".......        ..................        .......",
".......        ..................        .......",
".......   ............................   .......",
".......   ............................   .......",
"................................................",
"................................................",
"................................................",
"................................................"
};
