/* XPM */
static char *xpm_[] = {
/* columns rows colors chars-per-pixel */
"16 16 3 1 ",
"  c #C74343",
". c #F78F8F",
"X c None",
/* pixels */
"XXXXXXXXXXXXXXXX",
"XXXXXXXXXXXXXXXX",
"XX    XXXX    XX",
"X  ..  XX  ..  X",
"X .... XX .... X",
"X ....    .... X",
"X ............ X",
"X ............ X",
"X  ..........  X",
"XX .......... XX",
"XX   ......   XX",
"XXXX ...... XXXX",
"XXXX   ..   XXXX",
"XXXXXX .. XXXXXX",
"XXXXXX    XXXXXX",
"XXXXXXXXXXXXXXXX"
};
